<?xml version="1.0" encoding="UTF-8"?>
<svg version="1.1" xmlns="http://www.w3.org/2000/svg" width="500" height="500">
<path d="M0 0 C165 0 330 0 500 0 C500 165 500 330 500 500 C335 500 170 500 0 500 C0 335 0 170 0 0 Z " fill="#000000" transform="translate(0,0)"/>
<path d="M0 0 C6.6 0 13.2 0 20 0 C23.6875 7.625 23.6875 7.625 24.81518555 9.99072266 C30.76052026 22.07154466 41.54983746 30.13060309 54 35 C70.03134656 40.32232121 86.55014337 39.28516494 102.02734375 32.71484375 C116.38765147 25.48433818 124.6014611 14.39671252 131 0 C137.6 0 144.2 0 151 0 C149.60848088 6.26183604 148.51153669 10.88627249 145.5625 16.3125 C145.04623047 17.26962891 145.04623047 17.26962891 144.51953125 18.24609375 C140.64132986 25.10122438 135.60167354 30.52280809 130 36 C129.36707031 36.66515625 128.73414063 37.3303125 128.08203125 38.015625 C113.97865327 51.83880341 92.56314279 56.25660201 73.60400391 56.2487793 C54.70325491 56.03261967 34.95205076 49.97042729 20.7734375 36.8984375 C12.33547388 27.86572755 0 12.88860168 0 0 Z " fill="#FBFBFB" transform="translate(32,275)"/>
<path d="M0 0 C12.1483977 9.60918343 20.63795139 21.12955047 25.796875 35.76171875 C25.796875 36.42171875 25.796875 37.08171875 25.796875 37.76171875 C19.196875 37.76171875 12.596875 37.76171875 5.796875 37.76171875 C4.9925 36.15296875 4.188125 34.54421875 3.359375 32.88671875 C-5.41209238 16.90498193 -18.39179361 9.14278938 -35.203125 3.76171875 C-49.22562943 0.18011932 -65.31879724 3.00674524 -78.078125 9.44921875 C-89.67998871 16.39988485 -97.22043776 25.79634427 -103.203125 37.76171875 C-109.803125 37.76171875 -116.403125 37.76171875 -123.203125 37.76171875 C-118.86883 19.61185844 -106.52318519 5.82092808 -91.203125 -4.23828125 C-63.64079618 -20.61123404 -26.01251759 -18.17703973 0 0 Z " fill="#FBFBFB" transform="translate(156.203125,187.23828125)"/>
<path d="M0 0 C6.27 0 12.54 0 19 0 C21.64 6.6 24.28 13.2 27 20 C29.52106818 14.3275966 31.93271723 8.7394392 34.16796875 2.96875 C35 1 35 1 36 0 C37.34267413 -0.08631874 38.68974322 -0.10706473 40.03515625 -0.09765625 C40.84404297 -0.09443359 41.65292969 -0.09121094 42.48632812 -0.08789062 C43.33646484 -0.07951172 44.18660156 -0.07113281 45.0625 -0.0625 C45.91650391 -0.05798828 46.77050781 -0.05347656 47.65039062 -0.04882812 C49.76695663 -0.03700373 51.88348685 -0.01906769 54 0 C49.89469982 11.26280608 45.43900088 22.34855806 40.76635742 33.38745117 C39.66739633 35.98501819 38.57463755 38.58513732 37.48242188 41.18554688 C36.78421234 42.84129692 36.08565828 44.49690173 35.38671875 46.15234375 C35.06072189 46.92819321 34.73472504 47.70404266 34.39884949 48.50340271 C32.11533909 53.88466091 32.11533909 53.88466091 31 55 C28.32941149 55.14115161 25.67567762 55.04247107 23 55 C20.68666068 49.5789541 18.37557226 44.15695575 16.06640625 38.73413086 C15.28346889 36.89631375 14.49995753 35.05874104 13.71582031 33.22143555 C9.01119988 22.19686144 4.40320249 11.14868363 0 0 Z " fill="#FAFAFA" transform="translate(243,275)"/>
<path d="M0 0 C6.97085303 -1.7183112 14.21310661 -2.83991421 21 0 C27.47057315 6.17484311 31.33476876 14.82006988 35.31640625 22.72998047 C37.52330523 27.0164081 40.05117926 31.03160745 42.6875 35.0625 C46.00684963 40.26136077 49.04325993 45.5868441 52 51 C44.74531242 52.12319498 37.14566602 53.09151161 30 51 C25.03737252 47.24127151 22.76872706 41.14550577 20.26269531 35.61816406 C18.13176481 31.19973818 15.4258927 27.16534318 12.75 23.0625 C11.74819027 21.48161413 10.7481298 19.8996181 9.75 18.31640625 C8.080827 15.68676903 6.39738051 13.06818215 4.6875 10.46484375 C4.048125 9.48644531 3.40875 8.50804687 2.75 7.5 C2.20859375 6.6853125 1.6671875 5.870625 1.109375 5.03125 C0 3 0 3 0 0 Z " fill="#F9F9F9" transform="translate(347,174)"/>
<path d="M0 0 C0.83265381 0.00523682 1.66530762 0.01047363 2.52319336 0.01586914 C3.42231445 0.0190918 4.32143555 0.02231445 5.24780273 0.02563477 C6.66609375 0.03820312 6.66609375 0.03820312 8.11303711 0.05102539 C9.06243164 0.05553711 10.01182617 0.06004883 10.98999023 0.06469727 C13.34356776 0.07652429 15.69702188 0.09300514 18.05053711 0.11352539 C17.59036063 5.48581823 14.60923377 9.35141564 11.73803711 13.73852539 C10.64667721 15.43500228 9.55553792 17.13162111 8.46459961 18.82836914 C7.90160156 19.6983252 7.33860352 20.56828125 6.75854492 21.46459961 C4.01225831 25.72377767 1.31416654 30.01312619 -1.38696289 34.30102539 C-4.24879539 38.82975483 -4.24879539 38.82975483 -5.64746094 40.98022461 C-6.99457845 43.09854991 -6.99457845 43.09854991 -8.02685547 45.42260742 C-9.15798383 47.70706788 -10.09277506 49.36079163 -11.94946289 51.11352539 C-15.60010902 52.08161706 -19.01860649 51.87498212 -22.76196289 51.61352539 C-23.74100586 51.57743164 -24.72004883 51.54133789 -25.72875977 51.50415039 C-28.13968408 51.41006554 -30.54254726 51.2788399 -32.94946289 51.11352539 C-29.38106096 43.56653658 -25.23675432 36.52952381 -20.76196289 29.48852539 C-19.43247694 27.3804896 -18.10305006 25.27241655 -16.77368164 23.16430664 C-16.1257666 22.14030762 -15.47785156 21.11630859 -14.81030273 20.0612793 C-11.79225715 15.28039733 -8.81108024 10.47658097 -5.83154297 5.67163086 C-2.38383094 0.13882046 -2.38383094 0.13882046 0 0 Z " fill="#F9F9F9" transform="translate(459.949462890625,173.886474609375)"/>
<path d="M0 0 C0.83265381 0.00523682 1.66530762 0.01047363 2.52319336 0.01586914 C3.42231445 0.0190918 4.32143555 0.02231445 5.24780273 0.02563477 C6.66609375 0.03820312 6.66609375 0.03820312 8.11303711 0.05102539 C9.06243164 0.05553711 10.01182617 0.06004883 10.98999023 0.06469727 C13.34356776 0.07652429 15.69702188 0.09300514 18.05053711 0.11352539 C17.45024708 3.5561973 16.56950336 6.58031076 15.20874023 9.79614258 C14.83164917 10.69347107 14.45455811 11.59079956 14.06604004 12.51531982 C13.45508484 13.9483847 13.45508484 13.9483847 12.83178711 15.41040039 C12.20487976 16.89446381 12.20487976 16.89446381 11.56530762 18.4085083 C10.68322718 20.49390849 9.79885674 22.57834133 8.91235352 24.66186523 C7.55055004 27.86349499 6.19647099 31.06830835 4.84350586 34.27368164 C3.98588513 36.2986128 3.1278274 38.32335894 2.26928711 40.34790039 C1.86198364 41.3113739 1.45468018 42.27484741 1.03503418 43.26751709 C0.46939758 44.59459686 0.46939758 44.59459686 -0.10766602 45.94848633 C-0.43996216 46.73060486 -0.7722583 47.51272339 -1.11462402 48.31854248 C-1.94946289 50.11352539 -1.94946289 50.11352539 -2.94946289 51.11352539 C-4.43818149 51.20021971 -5.93090789 51.22056033 -7.42211914 51.21118164 C-8.32124023 51.20795898 -9.22036133 51.20473633 -10.14672852 51.20141602 C-11.56501953 51.18884766 -11.56501953 51.18884766 -13.01196289 51.17602539 C-13.96135742 51.17151367 -14.91075195 51.16700195 -15.88891602 51.16235352 C-18.24249354 51.15052649 -20.59594766 51.13404564 -22.94946289 51.11352539 C-19.03255539 40.46457469 -14.90542552 29.920649 -10.5703125 19.43505859 C-9.61669321 17.12696565 -8.66864045 14.81663517 -7.72094727 12.50610352 C-7.11384888 11.03266289 -6.50643956 9.55935034 -5.89868164 8.08618164 C-5.61643234 7.3978273 -5.33418304 6.70947296 -5.04338074 6.0002594 C-2.61822873 0.15247043 -2.61822873 0.15247043 0 0 Z " fill="#F9F9F9" transform="translate(320.949462890625,173.886474609375)"/>
<path d="M0 0 C6.27 0 12.54 0 19 0 C23.67677949 8.85544045 27.43438897 18.0441481 31.21313477 27.30712891 C32.32208221 30.02347141 33.43897373 32.73645398 34.55664062 35.44921875 C35.26349234 37.17428604 35.96988947 38.89953968 36.67578125 40.625 C37.01007645 41.43638428 37.34437164 42.24776855 37.688797 43.08374023 C40 48.76979468 40 48.76979468 40 51 C33.4 51 26.8 51 20 51 C15.45254216 41.37213385 11.05194794 31.7108048 6.91772461 21.8984375 C6.04663801 19.83747098 5.16293779 17.78217245 4.27929688 15.7265625 C3.71797307 14.39876568 3.15739671 13.07065257 2.59765625 11.7421875 C1.84754272 9.97657471 1.84754272 9.97657471 1.08227539 8.17529297 C0 5 0 5 0 0 Z " fill="#F9F9F9" transform="translate(202,174)"/>
<path d="M0 0 C6.27 0 12.54 0 19 0 C19 17.82 19 35.64 19 54 C12.73 54 6.46 54 0 54 C0 36.18 0 18.36 0 0 Z " fill="#F9F9F9" transform="translate(403,275)"/>
<path d="M0 0 C3.30616302 2.46203629 4.76204427 3.88160805 5.625 7.9375 C4.74931432 12.22835983 3.28826203 14.12277073 0 17 C-2.85334922 17.81113355 -5.13912707 17.76136134 -8 17 C-11 14.9375 -11 14.9375 -13 12 C-13.69151325 7.69725091 -13.51557405 5.79054688 -11.125 2.125 C-7.3595398 -1.6404602 -5.11205791 -1.21303069 0 0 Z " fill="#E0E0E0" transform="translate(25,241)"/>
<path d="M0 0 C4.44999917 1.53727244 6.04472012 3.14968395 8.4375 7.1875 C8.58592915 11.49194539 8.14867869 13.37173621 5.3125 16.625 C1.63683618 18.62264338 -0.43401069 18.85100721 -4.5625 18.1875 C-7.48789902 16.19573896 -9.14979794 14.73825925 -10.078125 11.25 C-10.43431493 6.97572086 -9.82914901 5.50617809 -7 2.125 C-3.5625 0.1875 -3.5625 0.1875 0 0 Z " fill="#DDDDDD" transform="translate(267.5625,239.8125)"/>
<path d="M0 0 C3.5813402 1.12745895 5.12632572 2.09424995 7.375 5.0625 C7.375 5.7225 7.375 6.3825 7.375 7.0625 C6.385 7.0625 5.395 7.0625 4.375 7.0625 C3.92125 6.5675 3.4675 6.0725 3 5.5625 C1.42472142 3.81528987 1.42472142 3.81528987 -1.1875 3.75 C-3.80296419 3.83283253 -3.80296419 3.83283253 -5.625 6.0625 C-5.87503964 9.60428598 -5.87503964 9.60428598 -5.625 13.0625 C-4.44781015 14.46682936 -4.44781015 14.46682936 -1.125 14.1875 C2.19781015 14.46682936 2.19781015 14.46682936 3.375 13.0625 C0.405 12.5675 0.405 12.5675 -2.625 12.0625 C-2.625 11.0725 -2.625 10.0825 -2.625 9.0625 C0.675 9.0625 3.975 9.0625 7.375 9.0625 C6.89738806 14.43563433 6.89738806 14.43563433 4.8125 16.9375 C1.28602055 18.5651059 -1.81604278 18.87424498 -5.625 18.0625 C-8.26416623 15.95116702 -9.31204913 14.42411081 -10.0703125 11.125 C-10.44378884 6.83814114 -9.90896895 5.40187753 -7.0625 2 C-3.625 0.0625 -3.625 0.0625 0 0 Z " fill="#DDDDDD" transform="translate(377.625,239.9375)"/>
<path d="M0 0 C3.63 0 7.26 0 11 0 C11 0.99 11 1.98 11 3 C8.36 3 5.72 3 3 3 C3 4.65 3 6.3 3 8 C5.64 8 8.28 8 11 8 C11 8.99 11 9.98 11 11 C8.36 11 5.72 11 3 11 C3 12.32 3 13.64 3 15 C5.64 15 8.28 15 11 15 C11 15.99 11 16.98 11 18 C7.37 18 3.74 18 0 18 C0 12.06 0 6.12 0 0 Z " fill="#D6D6D6" transform="translate(408,240)"/>
<path d="M0 0 C0.99 0 1.98 0 3 0 C4.0067004 2.26807204 5.00551766 4.53907754 6 6.8125 C6.28617188 7.45509766 6.57234375 8.09769531 6.8671875 8.75976562 C8.13711041 11.67756469 9 13.78265714 9 17 C8.01 17 7.02 17 6 17 C5.67 16.01 5.34 15.02 5 14 C2.69 14 0.38 14 -2 14 C-2.33 14.99 -2.66 15.98 -3 17 C-3.99 17 -4.98 17 -6 17 C-5.34496718 12.94180817 -4.05440879 9.46028718 -2.4375 5.6875 C-1.75494141 4.08455078 -1.75494141 4.08455078 -1.05859375 2.44921875 C-0.53458984 1.23685547 -0.53458984 1.23685547 0 0 Z " fill="#E4E4E4" transform="translate(129,241)"/>
<path d="M0 0 C3 1 3 1 3.89135742 2.67407227 C4.12701416 3.38104248 4.3626709 4.0880127 4.60546875 4.81640625 C4.86650391 5.58017578 5.12753906 6.34394531 5.39648438 7.13085938 C5.65751953 7.93330078 5.91855469 8.73574219 6.1875 9.5625 C6.46013672 10.36880859 6.73277344 11.17511719 7.01367188 12.00585938 C7.68637481 14.00036455 8.34456415 15.99975402 9 18 C8.01 18 7.02 18 6 18 C5.67 16.68 5.34 15.36 5 14 C2.36 14 -0.28 14 -3 14 C-3.33 15.32 -3.66 16.64 -4 18 C-4.99 17.67 -5.98 17.34 -7 17 C-4.69 11.39 -2.38 5.78 0 0 Z " fill="#DFDFDF" transform="translate(338,240)"/>
<path d="M0 0 C4.59195094 1.14798774 4.87820524 1.73528573 7.25 5.5625 C8.03117188 6.80193359 8.03117188 6.80193359 8.828125 8.06640625 C9.21484375 8.70449219 9.6015625 9.34257812 10 10 C10.33 6.7 10.66 3.4 11 0 C11.66 0 12.32 0 13 0 C13 5.61 13 11.22 13 17 C7.81257257 14.40628629 6.86746405 11.9384103 4 7 C3.67 10.3 3.34 13.6 3 17 C2.01 17 1.02 17 0 17 C0 11.39 0 5.78 0 0 Z " fill="#DEDEDE" transform="translate(160,241)"/>
<path d="M0 0 C2 3 2 3 1.75 6.625 C1.5025 7.73875 1.255 8.8525 1 10 C-2.01324195 11.50662097 -4.68286377 11.17770373 -8 11 C-10 9 -10 9 -10.3125 5.5625 C-10 2 -10 2 -8.9375 0 C-5.77203476 -1.63378851 -3.34979714 -0.85267564 0 0 Z " fill="#060606" transform="translate(25,244)"/>
<path d="M0 0 C2.15502531 3.23253796 2.46856135 4.25150923 2 8 C0.9375 9.8125 0.9375 9.8125 -1 11 C-4.5625 11.3125 -4.5625 11.3125 -8 11 C-10 9 -10 9 -10.3125 5.5625 C-10 2 -10 2 -8.9375 0 C-5.77203476 -1.63378851 -3.34979714 -0.85267564 0 0 Z " fill="#070707" transform="translate(271,244)"/>
<path d="M0 0 C3.63 0 7.26 0 11 0 C11 0.99 11 1.98 11 3 C8.36 3 5.72 3 3 3 C3 4.65 3 6.3 3 8 C5.64 8 8.28 8 11 8 C11 8.66 11 9.32 11 10 C8.36 10 5.72 10 3 10 C3 11.65 3 13.3 3 15 C5.64 15 8.28 15 11 15 C11 15.99 11 16.98 11 18 C7.37 18 3.74 18 0 18 C0 12.06 0 6.12 0 0 Z " fill="#DDDDDD" transform="translate(91,240)"/>
<path d="M0 0 C8 0 8 0 10.5625 1.625 C12 4 12 4 11.75 7.25 C11.5025 8.1575 11.255 9.065 11 10 C10.01 10.33 9.02 10.66 8 11 C10.475 14.465 10.475 14.465 13 18 C10.33289346 17.84759391 8.5494129 17.50635081 6.5546875 15.66796875 C3 11.49375 3 11.49375 3 9 C4.65 8.67 6.3 8.34 8 8 C8 6.68 8 5.36 8 4 C5.03 3.505 5.03 3.505 2 3 C2 7.95 2 12.9 2 18 C1.34 18 0.68 18 0 18 C0 12.06 0 6.12 0 0 Z " fill="#EFEFEF" transform="translate(442,240)"/>
<path d="M0 0 C2.8976582 0.65909848 4.22485104 2.05161188 5.90625 4.43359375 C5.90625 5.09359375 5.90625 5.75359375 5.90625 6.43359375 C4.91625 6.43359375 3.92625 6.43359375 2.90625 6.43359375 C2.4525 5.91796875 1.99875 5.40234375 1.53125 4.87109375 C0.995 4.39671875 0.45875 3.92234375 -0.09375 3.43359375 C-3.43567692 3.67812499 -4.69918557 4.03902932 -7.09375 6.43359375 C-7.42708333 8.93359375 -7.42708333 8.93359375 -7.09375 11.43359375 C-5.13741025 13.84481234 -5.13741025 13.84481234 -1.46875 13.55859375 C-0.355 13.51734375 0.75875 13.47609375 1.90625 13.43359375 C2.23625 12.77359375 2.56625 12.11359375 2.90625 11.43359375 C3.89625 11.43359375 4.88625 11.43359375 5.90625 11.43359375 C4.75451645 13.90159422 3.85841435 15.4814294 1.90625 17.43359375 C-2.43500236 18.0069667 -4.40736351 17.91552469 -8.03125 15.37109375 C-10.62702109 11.67408645 -10.80628588 9.86715033 -10.09375 5.43359375 C-7.6204562 0.59006006 -5.16681246 -0.31810599 0 0 Z " fill="#E7E7E7" transform="translate(62.09375,240.56640625)"/>
<path d="M0 0 C1.670625 0.061875 1.670625 0.061875 3.375 0.125 C4.035 1.445 4.695 2.765 5.375 4.125 C2.735 3.795 0.095 3.465 -2.625 3.125 C-2.625 4.115 -2.625 5.105 -2.625 6.125 C-1.51125 6.41375 -0.3975 6.7025 0.75 7 C4.375 8.125 4.375 8.125 6.375 10.125 C6.04528521 13.42214793 5.7523161 14.7476839 3.375 17.125 C-0.0625 17.5625 -0.0625 17.5625 -3.625 17.125 C-5.5625 14.625 -5.5625 14.625 -6.625 12.125 C-1.675 13.115 -1.675 13.115 3.375 14.125 C3.375 12.805 3.375 11.485 3.375 10.125 C1.9828125 10.186875 1.9828125 10.186875 0.5625 10.25 C-2.625 10.125 -2.625 10.125 -5.625 8.125 C-5.9375 5.125 -5.9375 5.125 -5.625 2.125 C-3.625 0.125 -3.625 0.125 0 0 Z " fill="#E3E3E3" transform="translate(481.625,240.875)"/>
<path d="M0 0 C1.859375 0.15234375 1.859375 0.15234375 4 1 C5.78939376 4.54012777 6.78028962 8.21018561 8 12 C9.65 8.04 11.3 4.08 13 0 C13.99 0 14.98 0 16 0 C14.06375702 6.20477864 11.74390859 12.10825719 9 18 C8.34 18 7.68 18 7 18 C5.82887054 15.37690901 4.66294036 12.75171858 3.5 10.125 C3.16613281 9.37863281 2.83226562 8.63226563 2.48828125 7.86328125 C2.17246094 7.14785156 1.85664063 6.43242187 1.53125 5.6953125 C1.23798828 5.03547363 0.94472656 4.37563477 0.64257812 3.69580078 C0 2 0 2 0 0 Z " fill="#D6D6D6" transform="translate(221,240)"/>
<path d="M0 0 C1.8125 0.1875 1.8125 0.1875 4 1 C5.0409066 2.64142963 6.04504326 4.30712215 7 6 C7.66 6 8.32 6 9 6 C10.38938077 4.03852126 11.7260411 2.03833424 13 0 C13.99 0.33 14.98 0.66 16 1 C15.57847656 1.556875 15.15695312 2.11375 14.72265625 2.6875 C10.96301438 7.92445997 9.23487068 11.54105639 9 18 C8.34 18 7.68 18 7 18 C6.95875 16.865625 6.9175 15.73125 6.875 14.5625 C6.31803114 9.76399903 4.07678206 6.62532692 1.27734375 2.78515625 C0 1 0 1 0 0 Z " fill="#FBFBFB" transform="translate(296,240)"/>
<path d="M0 0 C0.33 0.66 0.66 1.32 1 2 C1.61875 2.061875 2.2375 2.12375 2.875 2.1875 C5 3 5 3 6.75 6.375 C8 10 8 10 8 13 C7.01 13 6.02 13 5 13 C4.67 12.01 4.34 11.02 4 10 C1.69 9.67 -0.62 9.34 -3 9 C-2.01 6.03 -1.02 3.06 0 0 Z " fill="#D8D8D8" transform="translate(130,245)"/>
<path d="M0 0 C3.3 0 6.6 0 10 0 C9.8125 2.8125 9.8125 2.8125 9 6 C6.4375 7.875 6.4375 7.875 4 9 C4 8.34 4 7.68 4 7 C2.35 7 0.7 7 -1 7 C-1 6.67 -1 6.34 -1 6 C1.31 5.34 3.62 4.68 6 4 C3.03 3.505 3.03 3.505 0 3 C0 2.01 0 1.02 0 0 Z " fill="#CDCDCD" transform="translate(375,249)"/>
<path d="M0 0 C0.625 1.8125 0.625 1.8125 1 4 C0.01 5.485 0.01 5.485 -1 7 C-1.66 7 -2.32 7 -3 7 C-0.525 10.465 -0.525 10.465 2 14 C-0.66710654 13.84759391 -2.4505871 13.50635081 -4.4453125 11.66796875 C-8 7.49375 -8 7.49375 -8 5 C-7.21625 4.896875 -6.4325 4.79375 -5.625 4.6875 C-2.66954819 4.22404978 -2.66954819 4.22404978 -1 1 C-0.67 0.67 -0.34 0.34 0 0 Z " fill="#E1E1E1" transform="translate(453,244)"/>
<path d="M0 0 C0.66 0 1.32 0 2 0 C2 5.61 2 11.22 2 17 C-2 15 -2 15 -3.25 12.375 C-3.4975 11.59125 -3.745 10.8075 -4 10 C-3.01 10 -2.02 10 -1 10 C-0.67 6.7 -0.34 3.4 0 0 Z " fill="#F6F6F6" transform="translate(171,241)"/>
<path d="M0 0 C1.98 0 3.96 0 6 0 C6.38218767 1.65614657 6.71395102 3.32457024 7 5 C6 6 6 6 3.4375 6.0625 C2.2309375 6.0315625 2.2309375 6.0315625 1 6 C1 8.97 1 11.94 1 15 C0.67 15 0.34 15 0 15 C0 10.05 0 5.1 0 0 Z " fill="#252525" transform="translate(444,243)"/>
<path d="M0 0 C0.7734375 0.495 0.7734375 0.495 1.5625 1 C4.78026512 2.32010877 7.5570528 2.13242105 11 2 C11.33 1.34 11.66 0.68 12 0 C12.99 0 13.98 0 15 0 C13.84826645 2.46800047 12.95216435 4.04783565 11 6 C7.30866537 6.34179024 4.86213284 6.46422538 1.5625 4.6875 C0 3 0 3 0 0 Z " fill="#DFDFDF" transform="translate(53,252)"/>
<path d="M0 0 C0.99 0.33 1.98 0.66 3 1 C4.1875 4.5625 4.1875 4.5625 5 8 C4.34 8 3.68 8 3 8 C3 8.99 3 9.98 3 11 C1.68 11 0.36 11 -1 11 C-1.0270043 9.54176788 -1.04639787 8.08339325 -1.0625 6.625 C-1.07410156 5.81289062 -1.08570313 5.00078125 -1.09765625 4.1640625 C-1 2 -1 2 0 0 Z " fill="#929292" transform="translate(338,240)"/>
<path d="M0 0 C1.859375 0.12109375 1.859375 0.12109375 4 1 C5.265625 3.72265625 5.265625 3.72265625 6.25 7.0625 C6.58515625 8.16722656 6.9203125 9.27195313 7.265625 10.41015625 C7.50796875 11.26480469 7.7503125 12.11945313 8 13 C7.01 13.33 6.02 13.66 5 14 C4.16235732 12.04350603 3.33000941 10.08474444 2.5 8.125 C2.0359375 7.03445312 1.571875 5.94390625 1.09375 4.8203125 C0 2 0 2 0 0 Z " fill="#D5D5D5" transform="translate(221,240)"/>
<path d="M0 0 C0.2475 0.5775 0.495 1.155 0.75 1.75 C2.60736894 5.09326408 4.55757759 7.51919253 8.25 8.75 C8.8275 8.8325 9.405 8.915 10 9 C10 9.66 10 10.32 10 11 C5.94219787 11.47183746 4.43804676 11.33329645 1.125 8.8125 C-1 6 -1 6 -1.375 3.25 C-1 1 -1 1 0 0 Z " fill="#EFEFEF" transform="translate(13,247)"/>
<path d="M0 0 C0.33 0 0.66 0 1 0 C1.28875 1.11375 1.5775 2.2275 1.875 3.375 C2.69241329 7.00291092 2.69241329 7.00291092 5 9 C7.57061311 9.64767793 7.57061311 9.64767793 10 10 C10 10.66 10 11.32 10 12 C5.98313013 12.46707789 4.43498188 12.32150834 1.125 9.875 C-1.32867437 6.55532291 -1.54981758 5.03199561 -1 1 C-0.67 0.67 -0.34 0.34 0 0 Z " fill="#F6F6F6" transform="translate(259,246)"/>
<path d="M0 0 C1.670625 0.061875 1.670625 0.061875 3.375 0.125 C4.035 1.445 4.695 2.765 5.375 4.125 C2.735 3.795 0.095 3.465 -2.625 3.125 C-2.625 4.775 -2.625 6.425 -2.625 8.125 C-3.615 8.125 -4.605 8.125 -5.625 8.125 C-5.75 5.25 -5.75 5.25 -5.625 2.125 C-3.625 0.125 -3.625 0.125 0 0 Z " fill="#F7F7F7" transform="translate(481.625,240.875)"/>
<path d="M0 0 C0.33 0 0.66 0 1 0 C1.34934248 2.93447681 1.51495218 5.14367502 -0.04296875 7.734375 C-1.375 9.375 -1.375 9.375 -4 12 C-4.66 12 -5.32 12 -6 12 C-6 11.34 -6 10.68 -6 10 C-7.32 9.67 -8.64 9.34 -10 9 C-6.535 8.505 -6.535 8.505 -3 8 C-3 7.34 -3 6.68 -3 6 C-2.34 5.67 -1.68 5.34 -1 5 C-0.34444881 2.47266765 -0.34444881 2.47266765 0 0 Z " fill="#D1D1D1" transform="translate(29,246)"/>
<path d="M0 0 C4 1 4 1 5.625 3.4375 C6.07875 4.283125 6.5325 5.12875 7 6 C7.66 6.66 8.32 7.32 9 8 C7.68 8.33 6.36 8.66 5 9 C3.35 6.03 1.7 3.06 0 0 Z " fill="#D9D9D9" transform="translate(296,240)"/>
<path d="M0 0 C0.53625 0.28875 1.0725 0.5775 1.625 0.875 C4.35280484 2.16711808 7.12612718 3.08558592 10 4 C10 4.66 10 5.32 10 6 C3.539801 6.36567164 3.539801 6.36567164 1.0625 4.6875 C0 3 0 3 0 0 Z " fill="#EDEDED" transform="translate(369,252)"/>
<path d="M0 0 C0.33 0.66 0.66 1.32 1 2 C2.65 2 4.3 2 6 2 C6 2.33 6 2.66 6 3 C5.21625 3.0825 4.4325 3.165 3.625 3.25 C0.85250896 3.72806339 0.85250896 3.72806339 -0.3125 6.0625 C-0.6528125 7.0215625 -0.6528125 7.0215625 -1 8 C-1.99 7.67 -2.98 7.34 -4 7 C-1.125 1.125 -1.125 1.125 0 0 Z " fill="#EEEEEE" transform="translate(335,250)"/>
<path d="M0 0 C0.66 0 1.32 0 2 0 C1.67 2.31 1.34 4.62 1 7 C2.65 6.67 4.3 6.34 6 6 C6 6.66 6 7.32 6 8 C0.25 8.125 0.25 8.125 -2 7 C-1.34 4.69 -0.68 2.38 0 0 Z " fill="#D8D8D8" transform="translate(336,244)"/>
<path d="M0 0 C0.66 0.33 1.32 0.66 2 1 C1.690625 1.53625 1.38125 2.0725 1.0625 2.625 C-0.17827439 5.3984957 -0.5909675 8.00042837 -1 11 C-1.33 11 -1.66 11 -2 11 C-2.59732819 8.23735711 -3 5.83967231 -3 3 C-1.5 1.3125 -1.5 1.3125 0 0 Z " fill="#CBCBCB" transform="translate(262,241)"/>
<path d="M0 0 C1 3 1 3 0.0625 5.1875 C-0.4634375 6.0846875 -0.4634375 6.0846875 -1 7 C-1.66 7 -2.32 7 -3 7 C-3.33 5.35 -3.66 3.7 -4 2 C-2.68 1.34 -1.36 0.68 0 0 Z " fill="#F5F5F5" transform="translate(231,251)"/>
<path d="M0 0 C0.99 0.33 1.98 0.66 3 1 C1.02 3.97 1.02 3.97 -1 7 C-1.66 6.67 -2.32 6.34 -3 6 C-1.125 1.125 -1.125 1.125 0 0 Z " fill="#D7D7D7" transform="translate(309,240)"/>
<path d="M0 0 C-1.32 1.32 -2.64 2.64 -4 4 C-4.33 3.34 -4.66 2.68 -5 2 C-6.65 2 -8.3 2 -10 2 C-10 1.67 -10 1.34 -10 1 C-3.375 -1.125 -3.375 -1.125 0 0 Z " fill="#BCBCBC" transform="translate(384,254)"/>
<path d="M0 0 C0.75 1.75 0.75 1.75 1 4 C-0.9375 6.25 -0.9375 6.25 -3 8 C-4 6 -4 6 -3.1875 3.4375 C-2 1 -2 1 0 0 Z " fill="#D9D9D9" transform="translate(453,244)"/>
<path d="M0 0 C2.92879371 0.62759865 5.36095629 1.58622659 8 3 C7.01 3 6.02 3 5 3 C5 3.66 5 4.32 5 5 C3.0625 4.1875 3.0625 4.1875 1 3 C0.67 2.01 0.34 1.02 0 0 Z " fill="#CFCFCF" transform="translate(475,253)"/>
<path d="M0 0 C3 3.75 3 3.75 3 6 C1.35 6 -0.3 6 -2 6 C-1.34 4.02 -0.68 2.04 0 0 Z " fill="#212121" transform="translate(130,245)"/>
</svg>
